<svg width="20" height="20" viewBox="0 0 20 20" fill="none" xmlns="http://www.w3.org/2000/svg">
<path d="M10.75 13.0711L13.75 10.0711M13.75 10.0711L10.75 7.07108M13.75 10.0711H6.25M19 10.0711C19 11.253 18.7672 12.4233 18.3149 13.5152C17.8626 14.6072 17.1997 15.5993 16.364 16.435C15.5282 17.2708 14.5361 17.9337 13.4442 18.386C12.3522 18.8383 11.1819 19.0711 10 19.0711C8.8181 19.0711 7.64778 18.8383 6.55585 18.386C5.46392 17.9337 4.47177 17.2708 3.63604 16.435C2.80031 15.5993 2.13738 14.6072 1.68508 13.5152C1.23279 12.4233 1 11.253 1 10.0711C1 7.68413 1.94821 5.39494 3.63604 3.70711C5.32387 2.01929 7.61305 1.07108 10 1.07108C12.3869 1.07108 14.6761 2.01929 16.364 3.70711C18.0518 5.39494 19 7.68413 19 10.0711Z" stroke="white" stroke-width="1.2" stroke-linecap="round" stroke-linejoin="round"/>
</svg>
