<svg width="40" height="41" viewBox="0 0 40 41" fill="none" xmlns="http://www.w3.org/2000/svg">
<rect x="0.5" y="0.713135" width="39" height="39" rx="19.5" stroke="#7CE5A7"/>
<g clip-path="url(#clip0_92_4)">
<path d="M24 13.5464C24.1633 13.5464 24.3209 13.6064 24.4429 13.7149C24.5649 13.8234 24.6429 13.9729 24.662 14.1351L24.6667 14.2131V16.8797C24.6666 17.043 24.6067 17.2006 24.4982 17.3226C24.3897 17.4447 24.2402 17.5226 24.078 17.5417L24 17.5464H22V18.2131H24C24.0949 18.2131 24.1887 18.2334 24.2751 18.2726C24.3616 18.3118 24.4386 18.369 24.5012 18.4404C24.5637 18.5118 24.6103 18.5957 24.6378 18.6865C24.6653 18.7773 24.6731 18.873 24.6607 18.9671L24.6473 19.0417L23.9807 21.7084C23.9476 21.8401 23.8751 21.9585 23.7729 22.0478C23.6706 22.1372 23.5436 22.1932 23.4087 22.2084L23.3333 22.2131H22V26.2131C22 26.3763 21.94 26.5339 21.8315 26.656C21.723 26.778 21.5735 26.8559 21.4113 26.8751L21.3333 26.8797H18.6667C18.5034 26.8797 18.3458 26.8197 18.2238 26.7112C18.1017 26.6027 18.0238 26.4532 18.0047 26.2911L18 26.2131V22.2131H16.6667C16.5034 22.213 16.3458 22.1531 16.2238 22.0446C16.1017 21.9361 16.0238 21.7866 16.0047 21.6244L16 21.5464V18.8797C16 18.7164 16.06 18.5588 16.1685 18.4368C16.277 18.3148 16.4265 18.2368 16.5887 18.2177L16.6667 18.2131H18V17.5464C18 16.5115 18.401 15.5168 19.119 14.7714C19.8369 14.026 20.8158 13.5879 21.85 13.5491L22 13.5464H24Z" fill="white"/>
</g>
<defs>
<clipPath id="clip0_92_4">
<rect width="16" height="16" fill="white" transform="translate(12 12.2131)"/>
</clipPath>
</defs>
</svg>
