<svg width="34" height="45" viewBox="0 0 34 45" fill="none" xmlns="http://www.w3.org/2000/svg">
<path d="M13.5529 7.34808C13.0967 5.75725 12.2701 4.39256 10.7729 3.66733C8.21115 2.43132 5.58706 1.32788 2.97466 0.193239C2.56659 -2.13231e-05 2.1053 -0.0501119 1.66526 0.0510547C1.22522 0.152221 0.832122 0.39874 0.549427 0.750809C-0.125117 1.50723 -0.125117 2.37283 0.260894 3.31641C3.27099 10.7247 4.50701 18.4605 4.40563 26.4302C4.32206 31.6883 3.68957 36.9233 2.51847 42.05C2.35081 42.7908 2.382 43.4537 3.07994 43.8982C3.77788 44.3427 4.39393 44.1282 5.00609 43.6681C6.04325 42.8883 7.1038 42.1397 8.14876 41.3716C9.39749 40.4838 10.3781 39.2699 10.9834 37.8624C13.549 31.733 15.0307 25.3463 15.1164 20.0474C15.132 14.8187 14.6135 11.0561 13.5529 7.34808Z" fill="url(#paint0_linear_101_7)"/>
<path d="M27.2933 17.1582C27.087 16.5475 26.7913 15.9706 26.416 15.4465C25.2853 14.1676 24.0259 13.0057 22.8171 11.797C22.1933 11.1731 21.4837 10.9509 20.6609 11.3564C19.8382 11.7619 19.7174 12.4793 19.7642 13.2981C20.0145 18.2479 19.3293 23.2005 17.7444 27.8963C16.8203 30.6842 15.5687 33.355 14.4965 36.0844C14.3736 36.4192 14.3736 36.7868 14.4965 37.1216C14.5628 37.2697 15.0735 37.3555 15.3231 37.2814C18.0953 36.4704 20.5635 35.2383 21.8736 32.4271C22.1933 31.7447 22.6768 31.1404 23.0433 30.4775C25.4529 26.418 26.9063 21.8631 27.2933 17.1582Z" fill="url(#paint1_linear_101_7)"/>
<path d="M31.867 22.96C31.633 22.6052 31.1613 22.1451 30.8454 22.1802C30.6185 22.241 30.408 22.3516 30.2292 22.5041C30.0505 22.6565 29.908 22.8469 29.8122 23.0614C28.0927 27.0804 25.7403 30.7979 22.8445 34.0724C22.6326 34.3483 22.4386 34.6375 22.2635 34.938L22.4273 35.2656C23.3865 35.0862 24.5055 35.1564 25.2736 34.6729C28.2182 32.8047 30.793 30.4097 32.8691 27.6077C33.1382 27.2918 33.3077 26.9032 33.3562 26.491C33.4048 26.0789 33.3303 25.6615 33.142 25.2917C32.7691 24.4871 32.3431 23.7082 31.867 22.96Z" fill="url(#paint2_linear_101_7)"/>
<defs>
<linearGradient id="paint0_linear_101_7" x1="-4.48421e-07" y1="-3.00969" x2="27.8063" y2="5.20576" gradientUnits="userSpaceOnUse">
<stop stop-color="#84EDA2"/>
<stop offset="0.913462" stop-color="#3B9ECC"/>
<stop offset="1" stop-color="#005EEE"/>
</linearGradient>
<linearGradient id="paint1_linear_101_7" x1="14.4043" y1="9.3681" x2="36.2366" y2="18.6495" gradientUnits="userSpaceOnUse">
<stop stop-color="#84EDA2"/>
<stop offset="0.913462" stop-color="#3B9ECC"/>
<stop offset="1" stop-color="#005EEE"/>
</linearGradient>
<linearGradient id="paint2_linear_101_7" x1="22.2635" y1="21.286" x2="36.7247" y2="31.8747" gradientUnits="userSpaceOnUse">
<stop stop-color="#84EDA2"/>
<stop offset="0.913462" stop-color="#3B9ECC"/>
<stop offset="1" stop-color="#005EEE"/>
</linearGradient>
</defs>
</svg>
