<svg width="130" height="45" viewBox="0 0 130 45" fill="none" xmlns="http://www.w3.org/2000/svg">
<path d="M56.6457 17.3822C55.822 16.9164 54.8898 16.677 53.9436 16.6881C52.8755 16.6691 51.8255 16.9662 50.9257 17.542C50.31 17.9465 49.7994 18.4918 49.4363 19.1328C49.0915 18.5213 48.6081 17.9991 48.0248 17.6083C47.1183 16.9926 46.0441 16.6713 44.9484 16.6881C43.986 16.6735 43.0393 16.9331 42.219 17.4367C41.6848 17.7668 41.2444 18.2287 40.9401 18.778V17.0078H38.0548V31.4072H41.0649V22.9189C41.0497 22.2847 41.1833 21.6557 41.4548 21.0824C41.6937 20.5972 42.0673 20.1911 42.531 19.9127C43.0223 19.6416 43.5743 19.4995 44.1354 19.4995C44.6966 19.4995 45.2486 19.6416 45.7399 19.9127C46.1973 20.1952 46.5661 20.6005 46.8044 21.0824C47.0788 21.6603 47.2124 22.295 47.1943 22.9345V31.4072H50.1732V22.9189C50.1516 22.2841 50.2855 21.6537 50.5631 21.0824C50.8086 20.598 51.1856 20.1926 51.651 19.9127C52.1364 19.6323 52.6891 19.4895 53.2496 19.4994C53.8053 19.4879 54.3534 19.631 54.8326 19.9127C55.29 20.1952 55.6588 20.6005 55.8971 21.0824C56.1714 21.6603 56.3051 22.295 56.287 22.9345V31.4072H59.2932V22.0923C59.3107 21.1127 59.0628 20.1467 58.5757 19.2966C58.1138 18.4984 57.4476 17.8376 56.6457 17.3822Z" fill="white"/>
<path d="M72.0978 18.7782C71.497 18.1199 70.7616 17.5986 69.9416 17.2497C69.0242 16.8629 68.0361 16.6716 67.0406 16.6883C65.766 16.6692 64.5113 17.0069 63.4184 17.663C62.3552 18.3083 61.48 19.2212 60.8801 20.3105C60.2326 21.4924 59.9059 22.8233 59.9326 24.1706C59.914 25.5102 60.2346 26.8327 60.8645 28.0151C61.4652 29.1446 62.3631 30.0884 63.4613 30.7445C64.6187 31.4178 65.9398 31.7578 67.2785 31.7271C68.1997 31.7357 69.115 31.5785 69.9805 31.2631C70.7655 30.9769 71.4882 30.5428 72.1095 29.9842C72.6763 29.479 73.1261 28.8563 73.4274 28.1594L70.9631 26.9624C70.6127 27.5803 70.1143 28.1014 69.5127 28.4791C68.8449 28.8876 68.0725 29.0922 67.2902 29.0679C66.4885 29.0794 65.6996 28.866 65.0131 28.4518C64.3482 28.0435 63.8139 27.4537 63.473 26.7518C63.2181 26.2279 63.0734 25.6573 63.048 25.0752H73.7588C73.8117 24.8469 73.8469 24.6149 73.864 24.3812C73.864 24.1316 73.8913 23.8938 73.8913 23.6637C73.8969 22.7551 73.7384 21.8529 73.4234 21.0007C73.1281 20.1817 72.678 19.4272 72.0978 18.7782ZM63.473 21.5075C63.7705 20.8121 64.2692 20.2215 64.9049 19.8116C65.5406 19.4017 66.2844 19.1912 67.0406 19.2071C67.7689 19.1865 68.4861 19.3881 69.097 19.7851C69.7078 20.1821 70.1833 20.7557 70.4601 21.4296C70.6233 21.8217 70.7119 22.2409 70.7214 22.6656H63.1337C63.197 22.2705 63.3111 21.8852 63.473 21.5192V21.5075Z" fill="white"/>
<path d="M86.1697 18.6883C85.7108 18.149 85.1504 17.7052 84.5203 17.3821C83.5715 16.906 82.521 16.6678 81.4596 16.688C80.1673 16.6751 78.8968 17.0221 77.7905 17.6901C76.7105 18.3451 75.8207 19.2713 75.2093 20.3766C74.5838 21.5573 74.2569 22.8732 74.2569 24.2094C74.2569 25.5456 74.5838 26.8614 75.2093 28.0422C75.8155 29.1554 76.7062 30.0878 77.7905 30.7443C78.9081 31.4105 80.1898 31.7508 81.4907 31.7268C82.5421 31.7382 83.5813 31.5018 84.5242 31.0367C85.2276 30.6899 85.8393 30.1823 86.31 29.555V31.4071H89.1564V11.2605H86.1697V18.6883ZM85.6004 26.6307C85.2438 27.3249 84.7046 27.9086 84.0408 28.319C83.5369 28.6323 82.9736 28.8376 82.3863 28.922C81.7991 29.0064 81.2007 28.9681 80.6291 28.8094C80.0574 28.6507 79.5249 28.3752 79.0651 28.0002C78.6054 27.6252 78.2285 27.1589 77.9582 26.6307C77.5786 25.8752 77.3873 25.0392 77.4006 24.1938C77.3862 23.3533 77.5777 22.522 77.9582 21.7725C78.3139 21.0807 78.8536 20.5006 79.5178 20.0958C80.2002 19.6859 80.9833 19.4739 81.7793 19.4837C82.5717 19.4736 83.351 19.6857 84.0291 20.0958C84.6897 20.505 85.2283 21.084 85.5887 21.7725C85.9807 22.5187 86.1804 23.3509 86.1697 24.1938C86.1842 25.0402 85.99 25.8772 85.6043 26.6307H85.6004Z" fill="white"/>
<path d="M94.0536 19.6593C94.5046 19.3294 95.0552 19.1643 95.6133 19.1914C96.3469 19.1824 97.066 19.3958 97.6759 19.8036C98.2871 20.2017 98.7619 20.7772 99.0367 21.4529L101.353 20.3612C100.951 19.2405 100.182 18.2892 99.1692 17.663C98.1172 17.0083 96.8991 16.6699 95.66 16.6882C94.7545 16.6746 93.8567 16.8568 93.0282 17.2224C92.2873 17.5425 91.6511 18.0639 91.1917 18.7274C90.7391 19.3977 90.5061 20.1921 90.5249 21.0006C90.5121 21.9235 90.8397 22.8188 91.4451 23.5155C92.1913 24.3166 93.1591 24.8772 94.2252 25.1259L96.4867 25.7653C96.795 25.8392 97.0944 25.9464 97.3796 26.085C97.6572 26.2155 97.9053 26.4012 98.1087 26.6309C98.3107 26.8728 98.415 27.1816 98.4011 27.4965C98.4092 27.7518 98.3527 28.0051 98.2369 28.2327C98.121 28.4604 97.9495 28.6551 97.7383 28.7988C97.2266 29.1381 96.6204 29.306 96.0071 29.2784C95.1926 29.285 94.397 29.0339 93.7339 28.561C93.0351 28.064 92.4796 27.3915 92.1236 26.6114L89.8075 27.6993C90.239 28.9089 91.0625 29.9396 92.147 30.6275C93.2924 31.3674 94.6319 31.7501 95.9954 31.727C96.9556 31.7472 97.9089 31.5611 98.791 31.1811C99.5428 30.856 100.191 30.3315 100.666 29.6644C101.123 29.0042 101.36 28.2172 101.345 27.4146C101.363 26.4686 101.02 25.5513 100.386 24.849C99.6474 24.0687 98.6998 23.5177 97.6564 23.2621L95.3169 22.5719C95.0153 22.4836 94.7208 22.3728 94.4357 22.2405C94.1673 22.1185 93.931 21.9356 93.7456 21.7063C93.5615 21.4667 93.4677 21.1699 93.4805 20.868C93.4736 20.6356 93.5219 20.4048 93.6216 20.1947C93.7212 19.9846 93.8693 19.8011 94.0536 19.6593Z" fill="white"/>
<path d="M113.88 18.7783C113.28 18.1192 112.545 17.5977 111.724 17.2498C110.807 16.8622 109.819 16.6709 108.823 16.6883C107.55 16.6692 106.296 17.0069 105.205 17.6631C104.142 18.3093 103.265 19.2219 102.663 20.3106C102.017 21.4929 101.691 22.8237 101.719 24.1707C101.699 25.5105 102.019 26.8335 102.651 28.0152C103.251 29.1442 104.147 30.0879 105.244 30.7446C106.401 31.4238 107.724 31.7693 109.065 31.7427C109.986 31.7514 110.902 31.5942 111.767 31.2788C112.551 30.9904 113.273 30.5565 113.896 29.9999C114.463 29.4956 114.912 28.8726 115.21 28.1751L112.765 26.9781C112.412 27.5953 111.913 28.1162 111.311 28.4948C110.645 28.9031 109.873 29.1078 109.092 29.0836C108.296 29.0884 107.513 28.8696 106.835 28.4519C106.162 28.0472 105.621 27.4569 105.275 26.7519C105.022 26.2277 104.878 25.6571 104.854 25.0753H115.561C115.617 24.8475 115.654 24.6153 115.67 24.3813C115.67 24.1317 115.694 23.8939 115.694 23.6638C115.699 22.7556 115.541 21.8538 115.23 21.0007C114.925 20.1808 114.468 19.4265 113.88 18.7783ZM105.26 21.5076C105.563 20.8136 106.061 20.2229 106.694 19.8076C107.33 19.4024 108.07 19.1935 108.823 19.2072C109.552 19.1866 110.269 19.3882 110.88 19.7852C111.49 20.1822 111.966 20.7558 112.243 21.4296C112.405 21.8222 112.495 22.241 112.508 22.6657H104.92C104.985 22.269 105.104 21.8832 105.275 21.5193L105.26 21.5076Z" fill="white"/>
<path d="M129.543 21.0007C129.242 20.1803 128.785 19.4257 128.198 18.7782C127.599 18.12 126.865 17.5987 126.046 17.2497C125.128 16.8629 124.14 16.6716 123.145 16.6883C121.87 16.6692 120.615 17.0069 119.522 17.663C118.456 18.3081 117.577 19.2208 116.972 20.3105C116.328 21.4934 116.003 22.8238 116.029 24.1706C116.014 25.5112 116.338 26.8338 116.972 28.0151C117.572 29.1441 118.469 30.0878 119.565 30.7445C120.723 31.4232 122.045 31.7686 123.386 31.7427C124.308 31.7513 125.223 31.5941 126.089 31.2787C126.872 30.9903 127.595 30.5564 128.217 29.9998C128.784 29.4946 129.234 28.8719 129.535 28.175L127.087 26.978C126.736 27.5959 126.238 28.117 125.636 28.4947C124.969 28.9031 124.196 29.1078 123.414 29.0835C122.612 29.0967 121.823 28.8831 121.137 28.4674C120.464 28.0627 119.922 27.4724 119.577 26.7674C119.325 26.2426 119.182 25.6723 119.156 25.0908H129.863C129.919 24.863 129.956 24.6308 129.972 24.3968C129.972 24.1472 129.999 23.9094 129.999 23.6793C130.011 22.7662 129.856 21.8586 129.543 21.0007ZM119.577 21.5192C119.874 20.8232 120.372 20.232 121.008 19.8219C121.644 19.4119 122.388 19.2018 123.145 19.2188C123.873 19.1998 124.589 19.4021 125.2 19.7989C125.81 20.1957 126.286 20.7684 126.564 21.4412C126.727 21.8334 126.816 22.2526 126.825 22.6773H119.238C119.298 22.2778 119.412 21.8882 119.577 21.5192Z" fill="white"/>
<path d="M13.5529 7.49017C13.0967 5.89934 12.2701 4.53465 10.7729 3.80942C8.21115 2.57341 5.58706 1.46997 2.97466 0.335329C2.56659 0.142069 2.1053 0.0919779 1.66526 0.193144C1.22522 0.294311 0.832122 0.54083 0.549427 0.892899C-0.125117 1.64932 -0.125117 2.51492 0.260894 3.4585C3.27099 10.8668 4.50701 18.6026 4.40563 26.5723C4.32206 31.8304 3.68957 37.0654 2.51847 42.1921C2.35081 42.9329 2.382 43.5958 3.07994 44.0403C3.77788 44.4848 4.39393 44.2703 5.00609 43.8102C6.04325 43.0304 7.1038 42.2818 8.14876 41.5137C9.3975 40.6259 10.3781 39.412 10.9834 38.0045C13.549 31.8751 15.0307 25.4884 15.1164 20.1895C15.132 14.9608 14.6135 11.1982 13.5529 7.49017Z" fill="url(#paint0_linear_59_80)"/>
<path d="M27.2933 17.3004C27.087 16.6896 26.7913 16.1128 26.416 15.5887C25.2853 14.3098 24.0259 13.1478 22.8171 11.9391C22.1933 11.3153 21.4837 11.093 20.6609 11.4985C19.8382 11.904 19.7174 12.6215 19.7642 13.4403C20.0145 18.39 19.3293 23.3426 17.7444 28.0385C16.8203 30.8263 15.5687 33.4972 14.4965 36.2266C14.3736 36.5614 14.3736 36.9289 14.4965 37.2637C14.5628 37.4119 15.0735 37.4977 15.3231 37.4236C18.0953 36.6126 20.5635 35.3805 21.8736 32.5692C22.1933 31.8869 22.6768 31.2825 23.0433 30.6197C25.4529 26.5602 26.9063 22.0053 27.2933 17.3004Z" fill="url(#paint1_linear_59_80)"/>
<path d="M31.867 23.102C31.6331 22.7472 31.1613 22.2871 30.8454 22.3222C30.6185 22.383 30.408 22.4936 30.2292 22.6461C30.0505 22.7985 29.908 22.9889 29.8122 23.2034C28.0927 27.2224 25.7403 30.9399 22.8445 34.2144C22.6326 34.4903 22.4386 34.7795 22.2635 35.08L22.4273 35.4076C23.3865 35.2282 24.5055 35.2984 25.2736 34.8149C28.2182 32.9467 30.7931 30.5517 32.8691 27.7497C33.1382 27.4338 33.3077 27.0452 33.3563 26.633C33.4048 26.2209 33.3303 25.8035 33.142 25.4337C32.7691 24.6291 32.3431 23.8502 31.867 23.102Z" fill="url(#paint2_linear_59_80)"/>
<defs>
<linearGradient id="paint0_linear_59_80" x1="-4.48421e-07" y1="-2.8676" x2="27.8063" y2="5.34785" gradientUnits="userSpaceOnUse">
<stop stop-color="#84EDA2"/>
<stop offset="0.913462" stop-color="#3B9ECC"/>
<stop offset="1" stop-color="#005EEE"/>
</linearGradient>
<linearGradient id="paint1_linear_59_80" x1="14.4043" y1="9.51027" x2="36.2366" y2="18.7916" gradientUnits="userSpaceOnUse">
<stop stop-color="#84EDA2"/>
<stop offset="0.913462" stop-color="#3B9ECC"/>
<stop offset="1" stop-color="#005EEE"/>
</linearGradient>
<linearGradient id="paint2_linear_59_80" x1="22.2635" y1="21.428" x2="36.7247" y2="32.0167" gradientUnits="userSpaceOnUse">
<stop stop-color="#84EDA2"/>
<stop offset="0.913462" stop-color="#3B9ECC"/>
<stop offset="1" stop-color="#005EEE"/>
</linearGradient>
</defs>
</svg>
