<svg width="12" height="11" viewBox="0 0 12 11" fill="none" xmlns="http://www.w3.org/2000/svg">
<path d="M4.1215 3.31205L0.931497 3.77455L0.874997 3.78605C0.789467 3.80876 0.711495 3.85376 0.649044 3.91645C0.586592 3.97915 0.541899 4.0573 0.519528 4.14291C0.497158 4.22853 0.497911 4.31856 0.521711 4.40379C0.545511 4.48902 0.591506 4.56641 0.654997 4.62805L2.966 6.87755L2.421 10.0551L2.4145 10.1101C2.40926 10.1985 2.42763 10.2868 2.46772 10.3658C2.50781 10.4448 2.56819 10.5118 2.64267 10.5598C2.71714 10.6078 2.80304 10.6352 2.89157 10.6391C2.9801 10.643 3.06808 10.6233 3.1465 10.5821L5.9995 9.08205L8.846 10.5821L8.896 10.6051C8.97853 10.6376 9.06822 10.6475 9.15588 10.6339C9.24353 10.6203 9.32599 10.5837 9.39479 10.5277C9.4636 10.4717 9.51627 10.3984 9.54741 10.3154C9.57856 10.2323 9.58704 10.1425 9.572 10.0551L9.0265 6.87755L11.3385 4.62755L11.3775 4.58505C11.4332 4.51644 11.4697 4.43428 11.4834 4.34695C11.497 4.25962 11.4872 4.17024 11.455 4.08792C11.4229 4.00559 11.3695 3.93327 11.3002 3.87831C11.231 3.82335 11.1485 3.78772 11.061 3.77505L7.871 3.31205L6.445 0.422051C6.40374 0.338318 6.33986 0.267809 6.26059 0.218503C6.18133 0.169198 6.08985 0.143066 5.9965 0.143066C5.90315 0.143066 5.81167 0.169198 5.7324 0.218503C5.65314 0.267809 5.58926 0.338318 5.548 0.422051L4.1215 3.31205Z" fill="#7CE5A7"/>
</svg>
