<svg width="58" height="59" viewBox="0 0 58 59" fill="none" xmlns="http://www.w3.org/2000/svg">
<rect y="0.14209" width="58" height="58" rx="29" fill="#F5F5F9"/>
<path d="M32 20.1421V24.1421C32 24.4073 32.1054 24.6617 32.2929 24.8492C32.4804 25.0367 32.7348 25.1421 33 25.1421H37" stroke="#070127" stroke-width="1.4" stroke-linecap="round" stroke-linejoin="round"/>
<path d="M35 34.1421H28C27.4696 34.1421 26.9609 33.9314 26.5858 33.5563C26.2107 33.1812 26 32.6725 26 32.1421V22.1421C26 21.6117 26.2107 21.1029 26.5858 20.7279C26.9609 20.3528 27.4696 20.1421 28 20.1421H32L37 25.1421V32.1421C37 32.6725 36.7893 33.1812 36.4142 33.5563C36.0391 33.9314 35.5304 34.1421 35 34.1421Z" stroke="#070127" stroke-width="1.4" stroke-linecap="round" stroke-linejoin="round"/>
<path d="M33 34.1421V36.1421C33 36.6725 32.7893 37.1812 32.4142 37.5563C32.0391 37.9314 31.5304 38.1421 31 38.1421H24C23.4696 38.1421 22.9609 37.9314 22.5858 37.5563C22.2107 37.1812 22 36.6725 22 36.1421V26.1421C22 25.6117 22.2107 25.1029 22.5858 24.7279C22.9609 24.3528 23.4696 24.1421 24 24.1421H26" stroke="#070127" stroke-width="1.4" stroke-linecap="round" stroke-linejoin="round"/>
</svg>
