<svg width="58" height="59" viewBox="0 0 58 59" fill="none" xmlns="http://www.w3.org/2000/svg">
<rect y="0.14209" width="58" height="58" rx="29" fill="#F5F5F9"/>
<path d="M32.7211 36.6362H31.2795C30.5514 36.6362 29.9589 36.048 29.9589 35.3253V34.7156C29.9589 34.6117 29.8888 34.5158 29.7805 34.4708C29.6632 34.4237 29.5475 34.4414 29.4747 34.5132L29.038 34.9465C28.5227 35.4571 27.6848 35.4571 27.17 34.9465L26.1505 33.9346C25.6357 33.424 25.6357 32.5921 26.1505 32.0815L26.5872 31.6481C26.66 31.5758 26.6788 31.4612 26.6348 31.3556C26.5855 31.2373 26.4891 31.1676 26.3836 31.1676H25.7691C25.0405 31.1676 24.448 30.5794 24.448 29.8567V28.4258C24.448 27.7031 25.0405 27.1155 25.7691 27.1155H26.3836C26.4886 27.1155 26.5855 27.0458 26.6305 26.9376C26.6788 26.8219 26.66 26.7067 26.5872 26.6344L26.1505 26.201C25.6357 25.6899 25.6357 24.858 26.1505 24.3474L27.17 23.336C27.6688 22.8405 28.5388 22.8405 29.038 23.336L29.4747 23.7694C29.5475 23.8417 29.6638 23.8605 29.7698 23.8165C29.8893 23.7678 29.9595 23.6719 29.9595 23.5674V22.9573C29.9595 22.2346 30.552 21.6464 31.28 21.6464H32.7216C33.4497 21.6464 34.0427 22.234 34.0427 22.9573V23.5674C34.0427 23.6719 34.1129 23.7678 34.2211 23.8123C34.3384 23.8605 34.4541 23.8417 34.527 23.7694L34.9636 23.336C35.4618 22.8405 36.3329 22.8405 36.8311 23.336L37.8505 24.3474C38.3654 24.858 38.3654 25.6899 37.8505 26.201L37.4139 26.6344C37.3411 26.7062 37.3223 26.8214 37.3668 26.9274C37.4161 27.0458 37.5125 27.1155 37.6175 27.1155H38.232C38.96 27.1155 39.553 27.7031 39.553 28.4258V29.8567C39.553 30.5794 38.9605 31.1676 38.232 31.1676H37.6175C37.5125 31.1676 37.4155 31.2373 37.3711 31.3444C37.3218 31.4628 37.34 31.5748 37.4139 31.6481L37.8505 32.0815C38.3659 32.5921 38.3659 33.424 37.8505 33.9346L36.8311 34.9465C36.3163 35.4571 35.4784 35.4571 34.9636 34.9465L34.527 34.5132C34.453 34.4398 34.3411 34.4215 34.2323 34.4665L34.2211 34.4708C34.107 34.5239 34.0427 34.6155 34.0427 34.7156V35.3253C34.0416 36.048 33.4491 36.6362 32.7211 36.6362ZM29.652 33.393C29.8266 33.393 30.0034 33.4267 30.1727 33.4958C30.6891 33.7058 31.017 34.1837 31.017 34.7156V35.3253C31.017 35.4689 31.1343 35.5856 31.2795 35.5856H32.7211C32.8657 35.5856 32.9836 35.4689 32.9836 35.3253V34.7156C32.9836 34.1837 33.3114 33.7064 33.8182 33.4996L33.8482 33.4873C34.3464 33.2933 34.9041 33.4021 35.2743 33.7706L35.7109 34.204C35.8132 34.3058 35.9798 34.3058 36.0822 34.204L37.1016 33.1921C37.2039 33.0903 37.2039 32.9253 37.1016 32.824L36.665 32.3906C36.2964 32.0248 36.185 31.4773 36.3752 30.986L36.3966 30.9346C36.6002 30.4423 37.0813 30.1171 37.617 30.1171H38.2314C38.3761 30.1171 38.4939 30.0003 38.4939 29.8567V28.4258C38.4939 28.2823 38.3761 28.1655 38.2314 28.1655H37.617C37.0807 28.1655 36.5997 27.8403 36.3918 27.3367C36.1802 26.8289 36.2889 26.2653 36.665 25.8919L37.1016 25.4585C37.2039 25.3567 37.2039 25.1917 37.1016 25.0899L36.0822 24.0785C36.0152 24.0121 35.937 24.0019 35.8968 24.0019C35.8566 24.0019 35.7784 24.0121 35.7114 24.0785L35.2748 24.5119C34.8988 24.8853 34.3314 24.994 33.8279 24.7873C33.3114 24.5767 32.9841 24.0994 32.9841 23.5674V22.9573C32.9841 22.8137 32.8663 22.6969 32.7216 22.6969H31.28C31.1354 22.6969 31.0175 22.8137 31.0175 22.9573V23.5674C31.0175 24.0999 30.6897 24.5773 30.1823 24.784C29.6713 24.993 29.1023 24.8858 28.7268 24.5124L28.2902 24.079C28.2232 24.0126 28.145 24.0024 28.1043 24.0024C28.0636 24.0024 27.9859 24.0126 27.9189 24.079L26.8995 25.0905C26.7972 25.1923 26.7972 25.3573 26.8995 25.459L27.3361 25.8924C27.7122 26.2658 27.8214 26.8294 27.6136 27.3281C27.4014 27.8408 26.9204 28.166 26.3841 28.166H25.7697C25.625 28.166 25.5072 28.2828 25.5072 28.4264V29.8573C25.5072 30.0008 25.625 30.1176 25.7697 30.1176H26.3841C26.9204 30.1176 27.4014 30.4428 27.6098 30.9458C27.8214 31.4542 27.7122 32.0178 27.3361 32.3912L26.8995 32.8246C26.7972 32.9264 26.7972 33.0914 26.8995 33.1926L27.9189 34.2046C28.0213 34.3064 28.1879 34.3064 28.2902 34.2046L28.7268 33.7712C28.9754 33.5237 29.3091 33.393 29.652 33.393Z" fill="black"/>
<path d="M32 32.0622C30.3779 32.0622 29.0579 30.7524 29.0579 29.1421C29.0579 27.5322 30.3779 26.2224 32 26.2224C33.6227 26.2224 34.9421 27.5322 34.9421 29.1421C34.9421 30.7524 33.6227 32.0622 32 32.0622ZM32 27.2724C30.9613 27.2724 30.1164 28.1113 30.1164 29.1421C30.1164 30.1728 30.9618 31.0117 32 31.0117C33.0382 31.0117 33.8841 30.1728 33.8841 29.1421C33.8841 28.1113 33.0388 27.2724 32 27.2724Z" fill="black"/>
<path d="M20.9257 27.828C20.9005 27.828 20.8748 27.8264 20.8491 27.8226C20.5598 27.7808 20.3595 27.5146 20.4013 27.228C21.0955 22.4666 24.7438 18.5741 29.4805 17.5417C29.7639 17.478 30.0479 17.6585 30.1105 17.9419C30.1732 18.2248 29.9927 18.5055 29.7072 18.5671C25.3989 19.5062 22.0802 23.0467 21.4486 27.378C21.4105 27.6394 21.1845 27.828 20.9257 27.828Z" fill="black"/>
<path d="M29.5947 40.287C29.5572 40.287 29.5191 40.2827 29.4806 40.2747C24.6441 39.221 20.9836 35.2374 20.3707 30.3624C20.3343 30.0747 20.54 29.8122 20.8304 29.7763C21.1229 29.7436 21.3848 29.9445 21.4213 30.2322C21.9789 34.6668 25.3089 38.291 29.7082 39.2493C29.9938 39.3115 30.1743 39.5911 30.1116 39.8751C30.0564 40.1199 29.8379 40.287 29.5947 40.287Z" fill="black"/>
<path d="M33.957 40.3775C33.7047 40.3775 33.4818 40.1981 33.4363 39.9431C33.3859 39.6575 33.5782 39.3854 33.8664 39.335C38.4313 38.5389 42.02 34.7954 42.5938 30.2316C42.6302 29.944 42.8916 29.7409 43.1847 29.7757C43.4745 29.8116 43.6802 30.0741 43.6443 30.3618C43.0138 35.3793 39.0682 39.4947 34.0497 40.37C34.018 40.3748 33.9875 40.3775 33.957 40.3775Z" fill="black"/>
<path d="M43.0882 27.828C42.8295 27.828 42.6029 27.6394 42.5654 27.378C41.9043 22.8485 38.4088 19.2726 33.8664 18.4803C33.5788 18.4299 33.3864 18.1578 33.4363 17.8722C33.4872 17.5862 33.7625 17.3955 34.0491 17.4458C39.043 18.3163 42.8863 22.2474 43.6122 27.2274C43.6539 27.5146 43.4536 27.7808 43.1648 27.8221C43.1391 27.8263 43.1139 27.828 43.0882 27.828Z" fill="black"/>
<path d="M29.0605 20.5786C29.0005 20.5786 28.94 20.5684 28.8805 20.547C28.6057 20.4479 28.4638 20.1468 28.5629 19.8742L29.248 17.9992L27.313 17.3038C27.0382 17.2047 26.8963 16.9036 26.9954 16.6315C27.095 16.3588 27.3993 16.2179 27.673 16.3165L30.1057 17.1908C30.2375 17.2384 30.3452 17.3359 30.4052 17.4618C30.4647 17.5877 30.4711 17.7324 30.4234 17.8631L29.5588 20.232C29.4805 20.4463 29.2775 20.5786 29.0605 20.5786Z" fill="black"/>
<path d="M43.3132 28.0754C43.2243 28.0754 43.1343 28.0534 43.0518 28.0063L40.8463 26.758C40.5918 26.6145 40.5034 26.2936 40.6491 26.0418C40.7927 25.7895 41.1163 25.7016 41.3707 25.8457L43.1166 26.8341L44.1366 25.0598C44.2802 24.808 44.6038 24.7197 44.8582 24.8638C45.1127 25.0079 45.2011 25.3282 45.0554 25.58L43.7734 27.8102C43.6759 27.98 43.497 28.0754 43.3132 28.0754Z" fill="black"/>
<path d="M35.5561 41.9992C35.4361 41.9992 35.3156 41.959 35.2165 41.8765L33.2338 40.2271C33.1261 40.1371 33.0591 40.009 33.0468 39.8708C33.0345 39.7321 33.0784 39.5939 33.1684 39.4873L34.8002 37.5565C34.9882 37.3348 35.3214 37.3058 35.5459 37.4912C35.7698 37.6776 35.7993 38.0092 35.6118 38.231L34.3202 39.7594L35.8973 41.0719C36.1213 41.2583 36.1507 41.5899 35.9632 41.8117C35.8577 41.9349 35.7077 41.9992 35.5561 41.9992Z" fill="black"/>
<path d="M19.4038 32.6971C19.2956 32.6971 19.1868 32.6644 19.0931 32.5964C18.8568 32.4255 18.8048 32.0976 18.9763 31.8624L20.4988 29.7866C20.6707 29.5524 21.0013 29.4999 21.2381 29.6714L23.2909 31.1537C23.5272 31.3246 23.5791 31.6524 23.4077 31.8876C23.2357 32.1217 22.9047 32.1732 22.6684 32.0028L21.0431 30.8291L19.8318 32.4807C19.7284 32.6221 19.5672 32.6971 19.4038 32.6971Z" fill="black"/>
</svg>
