<svg width="58" height="59" viewBox="0 0 58 59" fill="none" xmlns="http://www.w3.org/2000/svg">
<rect y="0.14209" width="58" height="58" rx="29" fill="#F5F5F9"/>
<g clip-path="url(#clip0_56_957)">
<path d="M24.7666 21.9536C24.9608 21.9536 25.1182 21.7962 25.1182 21.602V20.72H25.992C26.1862 20.72 26.3435 20.5626 26.3435 20.3684C26.3435 20.1742 26.1862 20.0168 25.992 20.0168H25.03C24.6909 20.0168 24.4151 20.2927 24.4151 20.6318V21.602C24.415 21.7962 24.5724 21.9536 24.7666 21.9536Z" fill="black"/>
<path d="M37.0428 20.72H37.9004V21.602C37.9004 21.7962 38.0577 21.9535 38.2519 21.9535C38.4461 21.9535 38.6035 21.7962 38.6035 21.602V20.6318C38.6035 20.2927 38.3276 20.0168 37.9886 20.0168H37.0428C36.8486 20.0168 36.6912 20.1742 36.6912 20.3684C36.6912 20.5626 36.8486 20.72 37.0428 20.72Z" fill="black"/>
<path d="M37.0428 34.2054H37.9886C38.3276 34.2054 38.6035 33.9296 38.6035 33.5905V32.6528C38.6035 32.4586 38.4461 32.3013 38.2519 32.3013C38.0577 32.3013 37.9004 32.4586 37.9004 32.6528V33.5023H37.0428C36.8486 33.5023 36.6912 33.6597 36.6912 33.8539C36.6912 34.0481 36.8486 34.2054 37.0428 34.2054Z" fill="black"/>
<path d="M25.0299 34.2054H25.9919C26.1861 34.2054 26.3435 34.0481 26.3435 33.8539C26.3435 33.6597 26.1861 33.5023 25.9919 33.5023H25.1181V32.6528C25.1181 32.4586 24.9608 32.3013 24.7666 32.3013C24.5724 32.3013 24.415 32.4586 24.415 32.6528V33.5905C24.415 33.9296 24.6909 34.2054 25.0299 34.2054Z" fill="black"/>
<path d="M40.0443 36.1691H22.2256C22.0863 36.1691 21.973 36.0558 21.973 35.9165V18.0978C21.973 17.5708 21.5443 17.1421 21.0173 17.1421H17.9557C17.4287 17.1421 17 17.5708 17 18.0978V23.8164C17 24.0106 17.1574 24.1679 17.3516 24.1679C17.5458 24.1679 17.7031 24.0106 17.7031 23.8164V18.0978C17.7031 17.9585 17.8164 17.8452 17.9557 17.8452H21.0173C21.1566 17.8452 21.2699 17.9585 21.2699 18.0978V19.8061H20.0781C19.8839 19.8061 19.7266 19.9635 19.7266 20.1577C19.7266 20.3519 19.8839 20.5093 20.0781 20.5093H21.2699V22.0464H20.5391C20.3449 22.0464 20.1875 22.2037 20.1875 22.3979C20.1875 22.5922 20.3449 22.7495 20.5391 22.7495H21.2699V24.2866H20.0781C19.8839 24.2866 19.7266 24.4439 19.7266 24.6382C19.7266 24.8324 19.8839 24.9897 20.0781 24.9897H21.2699V26.5268H20.5391C20.3449 26.5268 20.1875 26.6842 20.1875 26.8784C20.1875 27.0726 20.3449 27.23 20.5391 27.23H21.2699V28.767H20.0781C19.8839 28.767 19.7266 28.9244 19.7266 29.1186C19.7266 29.3128 19.8839 29.4702 20.0781 29.4702H21.2699V31.0073H20.5391C20.3449 31.0073 20.1875 31.1647 20.1875 31.3589C20.1875 31.5531 20.3449 31.7104 20.5391 31.7104H21.2699V33.2475H20.0781C19.8839 33.2475 19.7266 33.4049 19.7266 33.5991C19.7266 33.7933 19.8839 33.9507 20.0781 33.9507H21.2699V35.9165C21.2699 36.0514 21.298 36.1798 21.3486 36.2962L17.7031 39.9418V25.4599C17.7031 25.2657 17.5458 25.1084 17.3516 25.1084C17.1574 25.1084 17 25.2657 17 25.4599V40.1864C17 40.7131 17.4284 41.1421 17.9557 41.1421H40.0444C40.5713 41.1421 41 40.7134 41 40.1864V37.1248C41 36.5978 40.5713 36.1691 40.0443 36.1691ZM40.2969 40.1864C40.2969 40.3257 40.1836 40.439 40.0443 40.439H18.2003L21.8458 36.7935C21.9622 36.8441 22.0907 36.8722 22.2255 36.8722H23.9682V38.0647C23.9682 38.2589 24.1256 38.4162 24.3198 38.4162C24.514 38.4162 24.6713 38.2589 24.6713 38.0647V36.8722H26.2085V37.6037C26.2085 37.7979 26.3658 37.9553 26.56 37.9553C26.7542 37.9553 26.9116 37.7979 26.9116 37.6037V36.8722H28.4487V38.0647C28.4487 38.2589 28.606 38.4162 28.8002 38.4162C28.9944 38.4162 29.1518 38.2589 29.1518 38.0647V36.8722H30.6889V37.6037C30.6889 37.7979 30.8463 37.9553 31.0405 37.9553C31.2347 37.9553 31.392 37.7979 31.392 37.6037V36.8722H32.9291V38.0647C32.9291 38.2589 33.0865 38.4162 33.2807 38.4162C33.4749 38.4162 33.6322 38.2589 33.6322 38.0647V36.8722H35.1694V37.6037C35.1694 37.7979 35.3267 37.9553 35.5209 37.9553C35.7151 37.9553 35.8725 37.7979 35.8725 37.6037V36.8722H37.4096V38.0647C37.4096 38.2589 37.5669 38.4162 37.7611 38.4162C37.9553 38.4162 38.1127 38.2589 38.1127 38.0647V36.8722H40.0443C40.1836 36.8722 40.2969 36.9855 40.2969 37.1248V40.1864Z" fill="black"/>
<path d="M26.9565 30.3503L30.9804 32.6736C31.3066 32.8619 31.7119 32.8619 32.038 32.6736L36.0619 30.3503C36.3881 30.162 36.5908 29.8111 36.5908 29.4344V24.788C36.5908 24.4118 36.3885 24.0605 36.062 23.872L32.0381 21.5489C31.7119 21.3605 31.3066 21.3605 30.9804 21.5489L26.9566 23.8721C26.6306 24.0602 26.4277 24.4111 26.4277 24.788V29.4344C26.4277 29.8111 26.6303 30.1621 26.9565 30.3503ZM27.308 29.7414C27.1987 29.6783 27.1308 29.5607 27.1308 29.4344V24.9892L31.1577 27.3141V31.964L27.308 29.7414ZM31.332 22.1578C31.4413 22.0946 31.5771 22.0945 31.6865 22.1578L35.5361 24.3803L34.2102 25.1458C34.0421 25.2429 33.9845 25.4579 34.0816 25.626C34.1791 25.795 34.3944 25.8513 34.5618 25.7547L35.8877 24.9892V29.4344C35.8877 29.5606 35.8198 29.6783 35.7104 29.7414L31.8608 31.964V27.3141L33.1141 26.5906C33.2822 26.4935 33.3398 26.2785 33.2427 26.1104C33.1457 25.9422 32.9305 25.8846 32.7625 25.9817L31.5092 26.7052L27.4824 24.3803L31.332 22.1578Z" fill="black"/>
</g>
<defs>
<clipPath id="clip0_56_957">
<rect width="24" height="24" fill="white" transform="translate(17 17.1421)"/>
</clipPath>
</defs>
</svg>
