<svg width="40" height="41" viewBox="0 0 40 41" fill="none" xmlns="http://www.w3.org/2000/svg">
<rect x="0.5" y="0.713135" width="39" height="39" rx="19.5" stroke="#60DCB2"/>
<g clip-path="url(#clip0_92_5)">
<path d="M21.4141 18.7989C22.1951 19.58 22.1951 20.8463 21.4141 21.6274C20.6331 22.4084 19.3667 22.4084 18.5857 21.6274C17.8046 20.8463 17.8046 19.58 18.5857 18.7989C19.3667 18.0179 20.6331 18.0179 21.4141 18.7989Z" fill="white"/>
<path d="M22.3333 14.8799H17.6666C16.0123 14.8799 14.6666 16.2256 14.6666 17.8799V22.5465C14.6666 24.2008 16.0123 25.5465 17.6666 25.5465H22.3333C23.9876 25.5465 25.3333 24.2008 25.3333 22.5465V17.8799C25.3333 16.2256 23.9876 14.8799 22.3333 14.8799ZM20 22.8799C18.5296 22.8799 17.3333 21.6839 17.3333 20.2132C17.3333 18.7425 18.5296 17.5465 20 17.5465C21.4703 17.5465 22.6666 18.7425 22.6666 20.2132C22.6666 21.6839 21.4703 22.8799 20 22.8799ZM23 17.5465C22.8159 17.5465 22.6666 17.3973 22.6666 17.2132C22.6666 17.0291 22.8159 16.8799 23 16.8799C23.184 16.8799 23.3333 17.0291 23.3333 17.2132C23.3333 17.3973 23.184 17.5465 23 17.5465Z" fill="white"/>
</g>
<defs>
<clipPath id="clip0_92_5">
<rect width="16" height="16" fill="white" transform="translate(12 12.2131)"/>
</clipPath>
</defs>
</svg>
