<svg width="40" height="41" viewBox="0 0 40 41" fill="none" xmlns="http://www.w3.org/2000/svg">
<rect x="0.5" y="0.713135" width="39" height="39" rx="19.5" stroke="#60DCB2"/>
<g clip-path="url(#clip0_92_6)">
<path d="M14.6666 16.1189C14.6666 15.7598 14.7943 15.4635 15.0495 15.2301C15.3048 14.9966 15.6366 14.8799 16.045 14.8799C16.4461 14.8799 16.7707 14.9948 17.0186 15.2247C17.2739 15.4617 17.4015 15.7706 17.4015 16.1513C17.4015 16.496 17.2775 16.7834 17.0296 17.0132C16.7743 17.2503 16.4388 17.3688 16.0231 17.3688H16.0122C15.6111 17.3688 15.2865 17.2503 15.0386 17.0132C14.7906 16.7762 14.6666 16.4781 14.6666 16.1189ZM14.8088 25.5465V18.3492H17.2374V25.5465H14.8088ZM18.583 25.5465H21.0115V21.5277C21.0115 21.2763 21.0407 21.0823 21.0991 20.9459C21.2012 20.7017 21.3561 20.4951 21.564 20.3263C21.7718 20.1575 22.0326 20.0731 22.3462 20.0731C23.163 20.0731 23.5714 20.6155 23.5714 21.7001V25.5465H26V21.4199C26 20.3569 25.7447 19.5506 25.2342 19.0011C24.7237 18.4516 24.0491 18.1769 23.2104 18.1769C22.2696 18.1769 21.5366 18.5755 21.0115 19.3728V19.3944H21.0006L21.0115 19.3728V18.3492H18.583C18.5976 18.5791 18.6048 19.2938 18.6048 20.4934C18.6048 21.6929 18.5976 23.3773 18.583 25.5465Z" fill="white"/>
</g>
<defs>
<clipPath id="clip0_92_6">
<rect width="16" height="16" fill="white" transform="translate(12 12.2131)"/>
</clipPath>
</defs>
</svg>
