<svg width="130" height="45" viewBox="0 0 130 45" fill="none" xmlns="http://www.w3.org/2000/svg">
<path d="M56.6457 17.2401C55.822 16.7744 54.8898 16.535 53.9436 16.5461C52.8755 16.5271 51.8255 16.8242 50.9257 17.4C50.31 17.8045 49.7994 18.3498 49.4363 18.9908C49.0915 18.3793 48.6081 17.8571 48.0248 17.4663C47.1183 16.8506 46.0441 16.5293 44.9484 16.5461C43.986 16.5314 43.0393 16.7911 42.219 17.2947C41.6848 17.6248 41.2444 18.0866 40.9401 18.636V16.8658H38.0548V31.2652H41.0649V22.7769C41.0497 22.1427 41.1833 21.5137 41.4548 20.9404C41.6937 20.4552 42.0673 20.0491 42.531 19.7707C43.0223 19.4996 43.5743 19.3575 44.1354 19.3575C44.6966 19.3575 45.2486 19.4996 45.7399 19.7707C46.1973 20.0532 46.5661 20.4585 46.8044 20.9404C47.0788 21.5183 47.2124 22.153 47.1943 22.7925V31.2652H50.1732V22.7769C50.1516 22.1421 50.2855 21.5117 50.5631 20.9404C50.8086 20.456 51.1856 20.0506 51.651 19.7707C52.1364 19.4903 52.6891 19.3475 53.2496 19.3574C53.8053 19.3459 54.3534 19.489 54.8326 19.7707C55.29 20.0532 55.6588 20.4585 55.8971 20.9404C56.1714 21.5183 56.3051 22.153 56.287 22.7925V31.2652H59.2932V21.9503C59.3107 20.9707 59.0628 20.0047 58.5757 19.1546C58.1138 18.3564 57.4476 17.6956 56.6457 17.2401Z" fill="#070127"/>
<path d="M72.0978 18.636C71.497 17.9777 70.7616 17.4564 69.9416 17.1075C69.0242 16.7207 68.0361 16.5294 67.0406 16.5461C65.766 16.527 64.5113 16.8647 63.4184 17.5208C62.3552 18.1661 61.48 19.079 60.8801 20.1683C60.2326 21.3502 59.9059 22.6811 59.9326 24.0284C59.914 25.368 60.2346 26.6905 60.8645 27.8729C61.4652 29.0024 62.3631 29.9462 63.4613 30.6023C64.6187 31.2756 65.9398 31.6156 67.2785 31.5849C68.1997 31.5935 69.115 31.4363 69.9805 31.1209C70.7655 30.8347 71.4882 30.4006 72.1095 29.842C72.6763 29.3369 73.1261 28.7141 73.4274 28.0172L70.9631 26.8202C70.6127 27.4381 70.1143 27.9592 69.5127 28.3369C68.8449 28.7454 68.0725 28.95 67.2902 28.9257C66.4885 28.9372 65.6996 28.7238 65.0131 28.3096C64.3482 27.9013 63.8139 27.3115 63.473 26.6096C63.2181 26.0857 63.0734 25.5151 63.048 24.933H73.7588C73.8117 24.7047 73.8469 24.4727 73.864 24.239C73.864 23.9894 73.8913 23.7516 73.8913 23.5215C73.8969 22.6129 73.7384 21.7108 73.4234 20.8585C73.1281 20.0395 72.678 19.285 72.0978 18.636ZM63.473 21.3653C63.7705 20.6699 64.2692 20.0793 64.9049 19.6694C65.5406 19.2595 66.2844 19.049 67.0406 19.0649C67.7689 19.0443 68.4861 19.2459 69.097 19.6429C69.7078 20.0399 70.1833 20.6135 70.4601 21.2874C70.6233 21.6795 70.7119 22.0987 70.7214 22.5234H63.1337C63.197 22.1283 63.3111 21.743 63.473 21.377V21.3653Z" fill="#070127"/>
<path d="M86.1697 18.5462C85.7108 18.0069 85.1504 17.5631 84.5203 17.24C83.5715 16.7639 82.521 16.5257 81.4596 16.5459C80.1673 16.533 78.8968 16.88 77.7905 17.548C76.7105 18.203 75.8207 19.1292 75.2093 20.2345C74.5838 21.4152 74.2569 22.7311 74.2569 24.0673C74.2569 25.4035 74.5838 26.7193 75.2093 27.9001C75.8155 29.0133 76.7062 29.9457 77.7905 30.6022C78.9081 31.2684 80.1898 31.6087 81.4907 31.5847C82.5421 31.5961 83.5813 31.3597 84.5242 30.8946C85.2276 30.5478 85.8393 30.0402 86.31 29.4129V31.265H89.1564V11.1184H86.1697V18.5462ZM85.6004 26.4886C85.2438 27.1828 84.7046 27.7665 84.0408 28.1769C83.5369 28.4902 82.9736 28.6955 82.3863 28.7799C81.7991 28.8643 81.2007 28.826 80.6291 28.6673C80.0574 28.5086 79.5249 28.2331 79.0651 27.8581C78.6054 27.483 78.2285 27.0167 77.9582 26.4886C77.5786 25.7331 77.3873 24.8971 77.4006 24.0517C77.3862 23.2112 77.5777 22.3799 77.9582 21.6304C78.3139 20.9386 78.8536 20.3585 79.5178 19.9537C80.2002 19.5438 80.9833 19.3318 81.7793 19.3416C82.5717 19.3315 83.351 19.5436 84.0291 19.9537C84.6897 20.3629 85.2283 20.9419 85.5887 21.6304C85.9807 22.3766 86.1804 23.2088 86.1697 24.0517C86.1842 24.8981 85.99 25.7351 85.6043 26.4886H85.6004Z" fill="#070127"/>
<path d="M94.0536 19.5173C94.5046 19.1874 95.0552 19.0222 95.6133 19.0494C96.3469 19.0403 97.066 19.2537 97.6759 19.6615C98.2871 20.0596 98.7619 20.6351 99.0367 21.3108L101.353 20.2191C100.951 19.0984 100.182 18.1471 99.1692 17.5209C98.1172 16.8662 96.8991 16.5278 95.66 16.5462C94.7545 16.5325 93.8567 16.7147 93.0282 17.0803C92.2873 17.4005 91.6511 17.9219 91.1917 18.5854C90.7391 19.2556 90.5061 20.05 90.5249 20.8586C90.5121 21.7815 90.8397 22.6768 91.4451 23.3735C92.1913 24.1745 93.1591 24.7351 94.2252 24.9838L96.4867 25.6232C96.795 25.6971 97.0944 25.8044 97.3796 25.943C97.6572 26.0734 97.9053 26.2592 98.1087 26.4888C98.3107 26.7308 98.415 27.0395 98.4011 27.3544C98.4092 27.6098 98.3527 27.863 98.2369 28.0907C98.121 28.3183 97.9495 28.5131 97.7383 28.6567C97.2266 28.996 96.6204 29.1639 96.0071 29.1363C95.1926 29.143 94.397 28.8919 93.7339 28.4189C93.0351 27.9219 92.4796 27.2494 92.1236 26.4693L89.8075 27.5572C90.239 28.7668 91.0625 29.7975 92.147 30.4854C93.2924 31.2253 94.6319 31.608 95.9954 31.585C96.9556 31.6052 97.9089 31.419 98.791 31.0391C99.5428 30.7139 100.191 30.1895 100.666 29.5223C101.123 28.8622 101.36 28.0751 101.345 27.2726C101.363 26.3266 101.02 25.4092 100.386 24.707C99.6474 23.9266 98.6998 23.3756 97.6564 23.12L95.3169 22.4299C95.0153 22.3416 94.7208 22.2308 94.4357 22.0985C94.1673 21.9764 93.931 21.7935 93.7456 21.5643C93.5615 21.3247 93.4677 21.0279 93.4805 20.726C93.4736 20.4935 93.5219 20.2628 93.6216 20.0526C93.7212 19.8425 93.8693 19.659 94.0536 19.5173Z" fill="#070127"/>
<path d="M113.88 18.6361C113.28 17.977 112.545 17.4555 111.724 17.1076C110.807 16.72 109.819 16.5287 108.823 16.5462C107.55 16.527 106.296 16.8647 105.205 17.5209C104.142 18.1671 103.265 19.0797 102.663 20.1684C102.017 21.3507 101.691 22.6815 101.719 24.0285C101.699 25.3683 102.019 26.6913 102.651 27.873C103.251 29.002 104.147 29.9457 105.244 30.6024C106.401 31.2816 107.724 31.6271 109.065 31.6006C109.986 31.6092 110.902 31.452 111.767 31.1366C112.551 30.8482 113.273 30.4143 113.896 29.8577C114.463 29.3534 114.912 28.7304 115.21 28.0329L112.765 26.8359C112.412 27.4531 111.913 27.9741 111.311 28.3526C110.645 28.7609 109.873 28.9656 109.092 28.9414C108.296 28.9462 107.513 28.7274 106.835 28.3097C106.162 27.905 105.621 27.3147 105.275 26.6097C105.022 26.0856 104.878 25.5149 104.854 24.9331H115.561C115.617 24.7053 115.654 24.4731 115.67 24.2391C115.67 23.9895 115.694 23.7517 115.694 23.5216C115.699 22.6134 115.541 21.7116 115.23 20.8585C114.925 20.0386 114.468 19.2843 113.88 18.6361ZM105.26 21.3654C105.563 20.6714 106.061 20.0807 106.694 19.6654C107.33 19.2602 108.07 19.0513 108.823 19.065C109.552 19.0444 110.269 19.246 110.88 19.643C111.49 20.04 111.966 20.6136 112.243 21.2874C112.405 21.68 112.495 22.0988 112.508 22.5235H104.92C104.985 22.1268 105.104 21.741 105.275 21.3771L105.26 21.3654Z" fill="#070127"/>
<path d="M129.543 20.8585C129.242 20.0381 128.785 19.2835 128.198 18.636C127.599 17.9778 126.865 17.4565 126.046 17.1075C125.128 16.7207 124.14 16.5294 123.145 16.5461C121.87 16.527 120.615 16.8647 119.522 17.5208C118.456 18.1659 117.577 19.0786 116.972 20.1683C116.328 21.3512 116.003 22.6816 116.029 24.0284C116.014 25.369 116.338 26.6916 116.972 27.8729C117.572 29.0019 118.469 29.9456 119.565 30.6023C120.723 31.281 122.045 31.6264 123.386 31.6005C124.308 31.6091 125.223 31.4519 126.089 31.1365C126.872 30.8481 127.595 30.4142 128.217 29.8576C128.784 29.3525 129.234 28.7297 129.535 28.0328L127.087 26.8358C126.736 27.4537 126.238 27.9748 125.636 28.3525C124.969 28.761 124.196 28.9656 123.414 28.9413C122.612 28.9545 121.823 28.7409 121.137 28.3252C120.464 27.9205 119.922 27.3302 119.577 26.6252C119.325 26.1004 119.182 25.5301 119.156 24.9486H129.863C129.919 24.7208 129.956 24.4886 129.972 24.2546C129.972 24.005 129.999 23.7672 129.999 23.5371C130.011 22.624 129.856 21.7164 129.543 20.8585ZM119.577 21.377C119.874 20.681 120.372 20.0898 121.008 19.6797C121.644 19.2697 122.388 19.0596 123.145 19.0766C123.873 19.0576 124.589 19.2599 125.2 19.6567C125.81 20.0535 126.286 20.6262 126.564 21.2991C126.727 21.6912 126.816 22.1104 126.825 22.5351H119.238C119.298 22.1356 119.412 21.746 119.577 21.377Z" fill="#070127"/>
<path d="M13.5529 7.34808C13.0967 5.75725 12.2701 4.39256 10.7729 3.66733C8.21115 2.43132 5.58706 1.32788 2.97466 0.193239C2.56659 -2.13231e-05 2.1053 -0.0501119 1.66526 0.0510547C1.22522 0.152221 0.832122 0.39874 0.549427 0.750809C-0.125117 1.50723 -0.125117 2.37283 0.260894 3.31641C3.27099 10.7247 4.50701 18.4605 4.40563 26.4302C4.32206 31.6883 3.68957 36.9233 2.51847 42.05C2.35081 42.7908 2.382 43.4537 3.07994 43.8982C3.77788 44.3427 4.39393 44.1282 5.00609 43.6681C6.04325 42.8883 7.1038 42.1397 8.14876 41.3716C9.3975 40.4838 10.3781 39.2699 10.9834 37.8624C13.549 31.733 15.0307 25.3463 15.1164 20.0474C15.132 14.8187 14.6135 11.0561 13.5529 7.34808Z" fill="url(#paint0_linear_56_1107)"/>
<path d="M27.2933 17.1582C27.087 16.5475 26.7913 15.9706 26.416 15.4465C25.2853 14.1676 24.0259 13.0057 22.8171 11.797C22.1933 11.1731 21.4837 10.9509 20.6609 11.3564C19.8382 11.7619 19.7174 12.4793 19.7642 13.2981C20.0145 18.2479 19.3293 23.2005 17.7444 27.8963C16.8203 30.6842 15.5687 33.355 14.4965 36.0844C14.3736 36.4192 14.3736 36.7868 14.4965 37.1216C14.5628 37.2697 15.0735 37.3555 15.3231 37.2814C18.0953 36.4704 20.5635 35.2383 21.8736 32.4271C22.1933 31.7447 22.6768 31.1404 23.0433 30.4775C25.4529 26.418 26.9063 21.8631 27.2933 17.1582Z" fill="url(#paint1_linear_56_1107)"/>
<path d="M31.867 22.96C31.6331 22.6052 31.1613 22.1451 30.8454 22.1802C30.6185 22.241 30.408 22.3516 30.2292 22.5041C30.0505 22.6565 29.908 22.8469 29.8122 23.0614C28.0927 27.0804 25.7403 30.7979 22.8445 34.0724C22.6326 34.3483 22.4386 34.6375 22.2635 34.938L22.4273 35.2656C23.3865 35.0862 24.5055 35.1564 25.2736 34.6729C28.2182 32.8047 30.7931 30.4097 32.8691 27.6077C33.1382 27.2918 33.3077 26.9032 33.3563 26.491C33.4048 26.0789 33.3303 25.6615 33.142 25.2917C32.7691 24.4871 32.3431 23.7082 31.867 22.96Z" fill="url(#paint2_linear_56_1107)"/>
<defs>
<linearGradient id="paint0_linear_56_1107" x1="-4.48421e-07" y1="-3.00969" x2="27.8063" y2="5.20576" gradientUnits="userSpaceOnUse">
<stop stop-color="#84EDA2"/>
<stop offset="0.913462" stop-color="#3B9ECC"/>
<stop offset="1" stop-color="#005EEE"/>
</linearGradient>
<linearGradient id="paint1_linear_56_1107" x1="14.4043" y1="9.3681" x2="36.2366" y2="18.6495" gradientUnits="userSpaceOnUse">
<stop stop-color="#84EDA2"/>
<stop offset="0.913462" stop-color="#3B9ECC"/>
<stop offset="1" stop-color="#005EEE"/>
</linearGradient>
<linearGradient id="paint2_linear_56_1107" x1="22.2635" y1="21.286" x2="36.7247" y2="31.8747" gradientUnits="userSpaceOnUse">
<stop stop-color="#84EDA2"/>
<stop offset="0.913462" stop-color="#3B9ECC"/>
<stop offset="1" stop-color="#005EEE"/>
</linearGradient>
</defs>
</svg>
