<svg width="12" height="11" viewBox="0 0 12 11" fill="none" xmlns="http://www.w3.org/2000/svg">
<path d="M4.12151 3.31216L0.931505 3.77466L0.875005 3.78616C0.789475 3.80886 0.711502 3.85386 0.649051 3.91656C0.5866 3.97925 0.541907 4.0574 0.519536 4.14302C0.497165 4.22864 0.497919 4.31866 0.521719 4.40389C0.545519 4.48913 0.591513 4.56652 0.655005 4.62816L2.96601 6.87766L2.42101 10.0552L2.41451 10.1102C2.40927 10.1986 2.42764 10.2869 2.46773 10.3659C2.50782 10.4449 2.5682 10.5119 2.64267 10.5599C2.71715 10.6079 2.80305 10.6353 2.89158 10.6392C2.98011 10.6431 3.06809 10.6234 3.14651 10.5822L5.99951 9.08216L8.846 10.5822L8.896 10.6052C8.97854 10.6377 9.06823 10.6476 9.15588 10.634C9.24354 10.6204 9.326 10.5838 9.3948 10.5278C9.46361 10.4718 9.51628 10.3985 9.54742 10.3155C9.57856 10.2324 9.58705 10.1426 9.572 10.0552L9.0265 6.87766L11.3385 4.62766L11.3775 4.58516C11.4332 4.51654 11.4697 4.43438 11.4834 4.34706C11.497 4.25973 11.4872 4.17035 11.455 4.08802C11.4229 4.0057 11.3695 3.93337 11.3002 3.87841C11.231 3.82346 11.1485 3.78783 11.061 3.77516L7.87101 3.31216L6.44501 0.422158C6.40374 0.338425 6.33986 0.267915 6.2606 0.21861C6.18134 0.169305 6.08985 0.143173 5.99651 0.143173C5.90316 0.143173 5.81167 0.169305 5.73241 0.21861C5.65315 0.267915 5.58927 0.338425 5.54801 0.422158L4.12151 3.31216Z" fill="#FEFEFF"/>
</svg>
