<svg width="94" height="95" viewBox="0 0 94 95" fill="none" xmlns="http://www.w3.org/2000/svg">
<rect x="0.5" y="0.64209" width="93" height="93" rx="46.5" fill="white"/>
<rect x="0.5" y="0.64209" width="93" height="93" rx="46.5" stroke="url(#paint0_linear_59_53)"/>
<g clip-path="url(#clip0_59_53)">
<g clip-path="url(#clip1_59_53)">
<path d="M75.3186 50.7943C74.8984 47.8834 72.6116 45.5966 69.7008 45.1765V43.4537C69.7008 38.7004 66.0874 34.8302 61.6459 34.8302C57.3323 34.8302 53.7209 38.5828 53.591 43.1959H53.646L53.591 43.2054V61.8804C53.591 67.8504 49.1277 72.6985 43.6409 72.6985C38.1541 72.6985 33.6908 67.8438 33.6908 61.8804V60.2627C35.0648 60.2627 36.5337 59.2668 36.5337 56.4722V54.0889C42.6156 52.5339 46.9576 47.3115 46.9576 41.3907V39.4149H45.0624L45.0226 27.0815C45.0088 24.7985 43.3706 22.8492 41.124 22.4428C40.6394 20.9582 39.043 20.1475 37.5583 20.6322C36.0737 21.1168 35.263 22.7132 35.7477 24.1979C36.2323 25.6825 37.8287 26.4932 39.3134 26.0085C40.1084 25.749 40.7477 25.1509 41.0596 24.375C42.2736 24.7204 43.1146 25.8249 43.1244 27.0871L43.1671 39.4149H41.2718V41.4182C41.1963 44.7144 38.9864 47.5788 35.8173 48.4884C34.1216 49.0265 32.301 49.0265 30.6053 48.4884C27.4399 47.5757 25.235 44.7118 25.1621 41.4182V39.4149H22.3192V27.0957C22.3247 25.8148 23.1861 24.6957 24.423 24.3627C24.9997 25.8309 26.6575 26.5535 28.1257 25.9768C29.5939 25.4 30.3165 23.7421 29.7398 22.274C29.163 20.8059 27.5051 20.0832 26.037 20.6599C25.2415 20.9725 24.6276 21.6249 24.3642 22.4381C22.0931 22.8261 20.4302 24.7916 20.4239 27.0957V39.4149H18.5287V41.3859C18.5287 47.3134 22.8736 52.5377 28.9526 54.0889V56.4722C28.9526 59.2668 30.4215 60.2627 31.7955 60.2627V61.8804C31.7955 68.8928 37.1089 74.5938 43.6409 74.5938C50.1729 74.5938 55.4863 68.8862 55.4863 61.8804V43.2509C55.5811 39.6546 58.3462 36.7283 61.6459 36.7283C65.0422 36.7283 67.8055 39.7456 67.8055 43.4565V45.1765C64.1795 45.6998 61.6644 49.0635 62.1877 52.6895C62.711 56.3155 66.0748 58.8306 69.7008 58.3073C73.3267 57.784 75.8419 54.4201 75.3186 50.7943ZM38.4289 24.2528C37.9056 24.2528 37.4813 23.8285 37.4813 23.3051C37.4813 22.7818 37.9056 22.3575 38.4289 22.3575C38.9523 22.3575 39.3766 22.7818 39.3766 23.3051C39.3766 23.8285 38.9523 24.2528 38.4289 24.2528ZM27.0574 22.3575C27.5807 22.3575 28.005 22.7818 28.005 23.3051C28.005 23.8285 27.5807 24.2528 27.0574 24.2528C26.534 24.2528 26.1097 23.8285 26.1097 23.3051C26.1097 22.7818 26.534 22.3575 27.0574 22.3575ZM20.4239 41.3859V41.3101H23.2668V41.4182C23.3379 45.5369 26.0781 49.1314 30.031 50.2908C32.1024 50.9467 34.3258 50.9467 36.3972 50.2908C40.352 49.1329 43.0947 45.5383 43.1671 41.4182V41.3101H45.0624V41.3859C45.0624 46.6576 40.9989 51.2963 35.3965 52.4183C34.081 52.6817 32.7334 52.7478 31.3985 52.6144C30.959 52.5718 30.5221 52.5057 30.0898 52.4164C24.4874 51.2963 20.4239 46.6576 20.4239 41.3859ZM31.7955 58.3675C30.9427 58.3675 30.8479 57.0408 30.8479 56.4722V54.4613C30.9237 54.4708 31.0014 54.4746 31.0782 54.4822C31.1729 54.4926 31.2677 54.5002 31.3625 54.5087C31.8107 54.5485 32.2627 54.5751 32.7185 54.576H32.7659C33.2208 54.576 33.6718 54.5485 34.1172 54.5087C34.212 54.5002 34.3124 54.4926 34.41 54.4822C34.4849 54.4737 34.5626 54.4708 34.6375 54.4613V56.4722C34.6375 57.0408 34.5427 58.3675 33.6898 58.3675H31.7955ZM68.7531 56.4722C66.1364 56.4722 64.015 54.3508 64.015 51.7341C64.015 49.1173 66.1364 46.9959 68.7531 46.9959C71.3699 46.9959 73.4913 49.1173 73.4913 51.7341C73.4882 54.3497 71.3686 56.4691 68.7531 56.4722Z" fill="#60DCB2"/>
<path d="M68.7531 48.8911C67.183 48.8911 65.9102 50.1639 65.9102 51.734C65.9102 53.3041 67.183 54.5769 68.7531 54.5769C70.3232 54.5769 71.596 53.3041 71.596 51.734C71.596 50.1639 70.3232 48.8911 68.7531 48.8911ZM68.7531 52.6816C68.2298 52.6816 67.8055 52.2573 67.8055 51.734C67.8055 51.2107 68.2298 50.7864 68.7531 50.7864C69.2764 50.7864 69.7007 51.2107 69.7007 51.734C69.7007 52.2573 69.2764 52.6816 68.7531 52.6816Z" fill="#60DCB2"/>
</g>
</g>
<defs>
<linearGradient id="paint0_linear_59_53" x1="-6.96296" y1="117.642" x2="94.9311" y2="116.27" gradientUnits="userSpaceOnUse">
<stop offset="0.0885124" stop-color="#7CE5A7"/>
<stop offset="0.516867" stop-color="#F5F5F9"/>
<stop offset="1" stop-color="#7CE5A7"/>
</linearGradient>
<clipPath id="clip0_59_53">
<rect width="56" height="56" fill="white" transform="translate(19 19.1421)"/>
</clipPath>
<clipPath id="clip1_59_53">
<rect width="56.8587" height="56.8587" fill="white" transform="translate(18.5286 19.0981)"/>
</clipPath>
</defs>
</svg>
