<svg width="94" height="95" viewBox="0 0 94 95" fill="none" xmlns="http://www.w3.org/2000/svg">
<rect x="0.5" y="0.64209" width="93" height="93" rx="46.5" fill="white"/>
<rect x="0.5" y="0.64209" width="93" height="93" rx="46.5" stroke="url(#paint0_linear_59_66)"/>
<g clip-path="url(#clip0_59_66)">
<path d="M63.0161 57.1987H59.8882V54.0957C59.8908 53.9788 59.8702 53.8625 59.8274 53.7536C59.7847 53.6447 59.7206 53.5455 59.6391 53.4616C59.5575 53.3777 59.4601 53.311 59.3525 53.2652C59.2449 53.2194 59.1292 53.1954 59.0122 53.1948H56.2095C55.968 53.1942 55.7359 53.2881 55.5629 53.4565C55.3899 53.6249 55.2896 53.8543 55.2837 54.0957V57.1987H52.1055C51.864 57.1981 51.6319 57.292 51.4589 57.4604C51.2859 57.6288 51.1856 57.8582 51.1797 58.0996V60.9023C51.1856 61.1437 51.2859 61.3732 51.4589 61.5416C51.6319 61.7099 51.864 61.8039 52.1055 61.8032H55.2837V65.0063C55.2896 65.2477 55.3899 65.4772 55.5629 65.6456C55.7359 65.814 55.968 65.9079 56.2095 65.9072H59.0122C59.1292 65.9066 59.2449 65.8827 59.3525 65.8369C59.4601 65.7911 59.5575 65.7243 59.6391 65.6404C59.7206 65.5566 59.7847 65.4573 59.8274 65.3485C59.8702 65.2396 59.8908 65.1233 59.8882 65.0063V61.8032H63.0161C63.1331 61.8026 63.2488 61.7787 63.3564 61.7329C63.464 61.6871 63.5615 61.6203 63.643 61.5364C63.7245 61.4526 63.7886 61.3533 63.8313 61.2444C63.8741 61.1356 63.8947 61.0193 63.8921 60.9023V58.0996C63.8947 57.9827 63.8741 57.8664 63.8313 57.7575C63.7886 57.6486 63.7245 57.5494 63.643 57.4655C63.5615 57.3817 63.464 57.3149 63.3564 57.2691C63.2488 57.2233 63.1331 57.1994 63.0161 57.1987ZM62.4907 60.4019H59.4126C59.1712 60.4012 58.9391 60.4951 58.766 60.6635C58.593 60.8319 58.4928 61.0614 58.4868 61.3027V64.5059H56.6851V61.3027C56.6877 61.1858 56.6671 61.0695 56.6243 60.9606C56.5815 60.8518 56.5175 60.7525 56.436 60.6686C56.3544 60.5848 56.257 60.518 56.1494 60.4722C56.0417 60.4264 55.9261 60.4025 55.8091 60.4019H52.5811V58.6001H55.8091C55.9261 58.5995 56.0417 58.5756 56.1494 58.5298C56.257 58.484 56.3544 58.4172 56.436 58.3333C56.5175 58.2495 56.5815 58.1502 56.6243 58.0413C56.6671 57.9325 56.6877 57.8162 56.6851 57.6992V54.5962H58.4868V57.6992C58.4928 57.9406 58.593 58.1701 58.766 58.3384C58.9391 58.5068 59.1712 58.6007 59.4126 58.6001H62.4907V60.4019Z" fill="#60DCB2"/>
<path d="M57.7691 47.3049C55.8336 47.3054 53.9269 47.7742 52.2118 48.6713C50.4966 49.5684 49.024 50.867 47.9195 52.4565C47.7308 52.3985 47.5522 52.342 47.3839 52.2872L46.7038 50.3583C48.8059 48.7834 49.3816 46.3243 49.5388 45.1332C50.9524 44.7497 52.2505 43.0888 52.7706 40.8877C53.0509 39.6973 52.6405 38.5889 51.749 38.1295C51.502 38.0024 51.2281 37.9359 50.9503 37.9358C50.9963 37.5903 51.0444 37.1678 51.0941 36.649C51.2104 35.4351 51.2843 34.209 51.2843 33.8983C51.2843 33.6781 51.2887 33.4511 51.2933 33.2107C51.3304 31.294 51.3766 28.9087 49.2623 26.7702C47.3649 24.8511 44.6786 23.7932 41.8934 23.8701C39.1188 23.946 36.517 25.13 34.7549 27.1184C34.7008 27.1796 34.6459 27.2412 34.5901 27.3032C33.5273 28.4907 32.0715 30.1172 32.176 34.2824C32.1861 34.6901 32.5764 36.5585 32.9807 37.9825C32.7451 38.0059 32.5165 38.0765 32.3087 38.1901C31.4529 38.6526 31.0606 39.7366 31.3322 40.8878C31.8527 43.0927 33.1551 44.7556 34.5719 45.1349C34.7413 46.303 35.3341 48.7378 37.3825 50.3139L36.4854 52.1589C35.8447 52.3597 35.1227 52.5586 34.3775 52.7674C29.5609 54.1174 22.9521 55.9661 22.9521 61.9723V68.2522C22.9521 69.7358 23.7456 71.3125 25.1699 71.3125H57.8111C57.8176 71.3125 57.8239 71.3117 57.8303 71.3115C61.0071 71.2933 64.0471 70.0164 66.2842 67.7608C68.5212 65.5051 69.7728 62.4546 69.7648 59.2777C69.7567 56.1009 68.4895 53.0568 66.241 50.8125C63.9925 48.5683 60.946 47.3069 57.7691 47.3049ZM35.6345 28.2374C35.6918 28.1735 35.7483 28.1101 35.804 28.0472C37.3099 26.3478 39.5433 25.3357 41.9319 25.2704C44.3319 25.2037 46.6402 26.1104 48.2659 27.7549C49.9642 29.4725 49.9261 31.4437 49.8924 33.1829C49.8876 33.4304 49.8831 33.6641 49.8831 33.8977C49.8831 34.0463 49.8681 34.3545 49.8425 34.7465C49.5037 33.487 49.0299 32.2705 48.3776 31.5592L48.3257 31.4555C48.2665 31.3372 48.1751 31.238 48.0619 31.1694C47.9486 31.1009 47.8183 31.0658 47.686 31.0682C47.5537 31.0707 47.4248 31.1105 47.3142 31.1832C47.2036 31.2559 47.1158 31.3584 47.0611 31.4789C45.9321 33.9622 44.8137 33.8622 42.9609 33.6969C42.7458 33.6777 42.5269 33.6582 42.3045 33.6428C41.5995 33.5927 41.3445 34.0047 41.2675 34.1833C41.0391 34.7138 41.3565 35.2867 41.9376 35.9659C40.0879 35.7451 39.619 34.3922 39.1966 33.1718C38.9034 32.3248 38.5712 31.3646 37.605 31.3646C37.1395 31.3555 36.6774 31.4461 36.2498 31.6304C35.8221 31.8146 35.4389 32.0882 35.1257 32.4328C34.4077 33.2035 34.0031 34.3024 33.7779 35.3793C33.6867 35.0065 33.6199 34.6282 33.5777 34.2468C33.4863 30.6376 34.6275 29.3624 35.6345 28.2374ZM35.9095 44.4876C35.901 44.3072 35.8236 44.1368 35.6933 44.0117C35.5629 43.8866 35.3895 43.8162 35.2088 43.8152C35.1988 43.8152 35.1888 43.8152 35.1783 43.8152C34.1521 43.8152 33.0685 42.1412 32.6959 40.5655C32.5532 39.9609 32.7405 39.5492 32.9748 39.4225C33.2398 39.2796 33.5224 39.5313 33.6315 39.6463C33.7231 39.7428 33.8402 39.8112 33.9692 39.8435C34.0982 39.8758 34.2338 39.8708 34.36 39.8289C34.4863 39.787 34.598 39.7101 34.6822 39.6071C34.7663 39.5041 34.8194 39.3793 34.8352 39.2472C34.9043 39.127 34.9359 38.989 34.9262 38.8508C34.8518 37.776 34.9269 34.6994 36.1514 33.3872C36.3246 33.1951 36.5357 33.0409 36.7713 32.9342C37.007 32.8276 37.2621 32.7709 37.5208 32.7676C37.6261 32.9197 37.7666 33.3256 37.872 33.6304C38.3913 35.1306 39.3579 37.9225 43.6412 37.3115C43.7726 37.2927 43.8959 37.2371 43.9968 37.151C44.0978 37.065 44.1722 36.9521 44.2115 36.8254C44.2508 36.6987 44.2533 36.5634 44.2188 36.4353C44.1843 36.3073 44.1141 36.1916 44.0164 36.1019C43.6767 35.7896 43.3543 35.459 43.0506 35.1117C44.6979 35.2547 46.3782 35.3086 47.767 33.1234C48.6446 34.7694 49.1016 38.0425 49.2135 39.3422C49.2285 39.5169 49.3085 39.6796 49.4376 39.7982C49.5667 39.9168 49.7355 39.9827 49.9109 39.9829C49.9309 39.9829 49.9509 39.982 49.9716 39.9802C50.0985 39.9693 50.2201 39.924 50.3232 39.8491C50.4263 39.7742 50.507 39.6727 50.5566 39.5553C50.6949 39.4186 50.9059 39.2711 51.1071 39.3745C51.3642 39.5069 51.5495 39.9586 51.4067 40.5656C51.0342 42.1416 49.9508 43.8155 48.9243 43.8155H48.9068C48.7708 43.8133 48.637 43.8504 48.5216 43.9224C48.4237 43.9834 48.3425 44.0678 48.2851 44.1679C48.2278 44.268 48.1961 44.3807 48.193 44.4961C48.1629 45.069 47.8916 47.9988 45.5042 49.4825C45.5003 49.4848 45.4967 49.4874 45.4929 49.4898C44.5634 50.0633 43.4055 50.3542 42.0513 50.3542C40.7008 50.3542 39.5454 50.0567 38.6169 49.4697C36.2635 47.9838 35.9486 45.0589 35.9094 44.4876H35.9095ZM37.6143 53.0418L38.5852 51.0454C39.5907 51.5165 40.7525 51.7553 42.0514 51.7553C43.3314 51.7553 44.4778 51.5285 45.4727 51.0815L46.176 53.0763C46.2112 53.1763 46.2686 53.2669 46.3439 53.3415C46.4192 53.416 46.5104 53.4725 46.6107 53.5067C46.7853 53.5663 46.9701 53.627 47.1652 53.689C46.8218 54.3338 46.5384 55.0088 46.3185 55.7054C45.6701 56.4733 44.3093 57.648 42.0514 57.648C41.2894 57.6562 40.5343 57.5038 39.8353 57.2005C39.1362 56.8973 38.509 56.4501 37.9944 55.8881C37.2553 55.0953 36.837 54.2115 36.696 53.5607C36.8678 53.5079 37.0363 53.4551 37.2009 53.4016C37.2904 53.3725 37.3731 53.3256 37.4441 53.2638C37.5152 53.202 37.5731 53.1265 37.6143 53.0418ZM24.3535 68.2522V61.9723C24.3535 57.0288 30.1266 55.4142 34.7555 54.1168C34.9514 54.0619 35.1507 54.0077 35.3412 53.954C35.8482 56.0839 38.1322 59.049 42.0478 59.049C43.3896 59.0659 44.7072 58.6905 45.8387 57.9689C45.571 60.3625 46.0294 62.7813 47.1542 64.911C48.2791 67.0407 50.0185 68.7828 52.1463 69.9112H25.1699C24.7239 69.9112 24.3535 69.0194 24.3535 68.2522ZM57.7691 69.9112C55.6722 69.9111 53.6223 69.2893 51.8788 68.1243C50.1353 66.9593 48.7764 65.3034 47.9739 63.3661C47.1715 61.4288 46.9615 59.297 47.3706 57.2404C47.7797 55.1837 48.7895 53.2946 50.2722 51.8118C51.755 50.3291 53.6441 49.3193 55.7008 48.9102C57.7574 48.5011 59.8892 48.711 61.8265 49.5135C63.7638 50.316 65.4197 51.6749 66.5847 53.4184C67.7497 55.1619 68.3715 57.2118 68.3716 59.3087C68.3684 62.1197 67.2504 64.8146 65.2627 66.8023C63.2751 68.79 60.5801 69.908 57.7691 69.9112Z" fill="#60DCB2"/>
</g>
<defs>
<linearGradient id="paint0_linear_59_66" x1="-6.96296" y1="117.642" x2="94.9311" y2="116.27" gradientUnits="userSpaceOnUse">
<stop offset="0.0885124" stop-color="#7CE5A7"/>
<stop offset="0.516867" stop-color="#F5F5F9"/>
<stop offset="1" stop-color="#7CE5A7"/>
</linearGradient>
<clipPath id="clip0_59_66">
<rect width="50" height="50" fill="white" transform="translate(22 22.1421)"/>
</clipPath>
</defs>
</svg>
