<svg width="94" height="95" viewBox="0 0 94 95" fill="none" xmlns="http://www.w3.org/2000/svg">
<rect x="0.5" y="0.64209" width="93" height="93" rx="46.5" fill="white"/>
<rect x="0.5" y="0.64209" width="93" height="93" rx="46.5" stroke="url(#paint0_linear_56_882)"/>
<g clip-path="url(#clip0_56_882)">
<path d="M69.6562 22.9531H23.3438C23.1075 22.9531 22.881 23.047 22.714 23.214C22.547 23.381 22.4531 23.6075 22.4531 23.8438V70.1562C22.4531 70.3925 22.547 70.619 22.714 70.786C22.881 70.953 23.1075 71.0469 23.3438 71.0469H50.2763C50.5125 71.0469 50.739 70.953 50.906 70.786C51.073 70.619 51.1669 70.3925 51.1669 70.1562C51.1669 69.92 51.073 69.6935 50.906 69.5265C50.739 69.3595 50.5125 69.2656 50.2763 69.2656H24.2344V24.7344H68.7656V70.1562C68.7656 70.3925 68.8595 70.619 69.0265 70.786C69.1935 70.953 69.42 71.0469 69.6562 71.0469C69.8925 71.0469 70.119 70.953 70.286 70.786C70.453 70.619 70.5469 70.3925 70.5469 70.1562V23.8438C70.5469 23.6075 70.453 23.381 70.286 23.214C70.119 23.047 69.8925 22.9531 69.6562 22.9531Z" fill="#60DCB2"/>
<path d="M47.622 56.0667V36.4729C47.6174 36.2381 47.5221 36.0142 47.3561 35.8482C47.19 35.6821 46.9661 35.5868 46.7314 35.5823C46.4951 35.5823 46.2686 35.6761 46.1016 35.8431C45.9346 36.0102 45.8407 36.2367 45.8407 36.4729V56.0667C45.8407 56.3029 45.9346 56.5294 46.1016 56.6964C46.2686 56.8634 46.4951 56.9573 46.7314 56.9573C46.9676 56.9573 47.1941 56.8634 47.3611 56.6964C47.5281 56.5294 47.622 56.3029 47.622 56.0667Z" fill="#60DCB2"/>
<path d="M62.9233 45.842C63.4769 45.3148 63.8823 44.6514 64.0989 43.9183C64.207 43.5733 64.2359 43.2083 64.1835 42.8506C64.1311 42.4928 63.9986 42.1515 63.7961 41.852C63.1204 40.9284 62.1222 40.2926 60.9995 40.0708C61.5311 39.7176 62.0159 39.2987 62.4423 38.8239C62.8631 38.3628 63.1554 37.7992 63.2898 37.1896C63.4242 36.58 63.3961 35.9458 63.2083 35.3505C62.6561 34.2283 61.2667 33.5692 58.9867 33.5692C59.0408 33.4901 59.0885 33.4067 59.1292 33.3198C59.3256 32.8411 59.3879 32.3178 59.3094 31.8063C59.231 31.2948 59.0147 30.8143 58.6839 30.4164C57.1698 28.6352 53.3401 28.6352 46.9276 30.2917H46.5001C40.1054 28.6173 36.2579 28.6708 34.7261 30.4164C34.3964 30.8151 34.1823 31.2966 34.1069 31.8084C34.0316 32.3203 34.0978 32.843 34.2986 33.3198C34.327 33.3945 34.3628 33.4661 34.4054 33.5336C31.9117 33.5692 30.4689 34.1748 29.792 35.3683C29.6042 35.9636 29.576 36.5978 29.7105 37.2074C29.8449 37.817 30.1371 38.3806 30.5579 38.8417C30.9808 39.3201 31.4661 39.7395 32.0008 40.0886C30.8781 40.3104 29.8799 40.9462 29.2042 41.8698C29.007 42.1582 28.876 42.4865 28.8205 42.8314C28.7651 43.1763 28.7866 43.5292 28.8836 43.8648C29.1012 44.6264 29.5195 45.3154 30.0948 45.8598C29.6247 45.9805 29.1866 46.2024 28.8112 46.5101C28.4359 46.8178 28.1323 47.2038 27.9217 47.6411C27.8077 48.2828 27.852 48.9427 28.0506 49.5635C28.2493 50.1843 28.5963 50.7472 29.0617 51.2036C31.6445 54.2673 38.5736 53.8755 41.8154 53.5014C41.0619 54.8238 40.1131 56.0248 39.0011 57.0639C37.5592 58.3927 35.926 59.4975 34.1561 60.3414C33.1899 59.0111 32.4939 57.5042 32.1076 55.9061C32.0843 55.7915 32.0385 55.6826 31.9731 55.5856C31.9076 55.4886 31.8237 55.4055 31.7261 55.341C31.6285 55.2765 31.5191 55.2319 31.4043 55.2096C31.2894 55.1874 31.1713 55.188 31.0567 55.2114C30.8261 55.2668 30.6255 55.4084 30.4963 55.6073C30.367 55.8061 30.319 56.0469 30.362 56.2802C30.7183 58.0614 32.1433 61.5348 33.5326 62.2117C33.7131 62.3089 33.9155 62.358 34.1204 62.3542C34.2926 62.3567 34.4632 62.3202 34.6192 62.2473C36.6694 61.296 38.5569 60.0277 40.2123 58.4889C41.9755 56.9401 43.3227 54.9743 44.1311 52.7711C44.167 52.626 44.168 52.4744 44.1339 52.3289C44.0999 52.1833 44.0317 52.048 43.9351 51.9339C43.8342 51.8205 43.7059 51.7348 43.5625 51.6849C43.4191 51.635 43.2653 51.6226 43.1158 51.6489C40.337 52.1298 32.6064 52.7711 30.3798 50.1348C30.0592 49.7964 29.4179 48.888 29.6139 48.3536C29.8098 47.8192 30.6826 47.4452 32.0542 47.2314C34.2706 48.0742 36.6308 48.4736 39.0011 48.407C40.4721 48.4017 41.9414 48.3065 43.4008 48.122C43.5177 48.1045 43.6301 48.0641 43.7314 48.0031C43.8328 47.9421 43.9211 47.8618 43.9914 47.7667C44.0617 47.6716 44.1126 47.5636 44.1411 47.4488C44.1697 47.334 44.1753 47.2148 44.1578 47.0978C44.1402 46.9809 44.0998 46.8685 44.0389 46.7672C43.9779 46.6658 43.8976 46.5775 43.8025 46.5072C43.7074 46.4369 43.5993 46.386 43.4846 46.3574C43.3698 46.3289 43.2505 46.3232 43.1336 46.3408C39.9986 46.8039 31.6445 47.178 30.6648 43.3839C30.6528 43.2858 30.6608 43.1863 30.6884 43.0914C30.7159 42.9965 30.7624 42.9081 30.8251 42.8317C31.0567 42.4933 31.9117 41.7095 34.8864 41.4602C37.6302 42.2949 40.4794 42.7328 43.3473 42.7605C43.5835 42.7605 43.8101 42.6666 43.9771 42.4996C44.1441 42.3326 44.2379 42.106 44.2379 41.8698C44.2379 41.6336 44.1441 41.4071 43.9771 41.2401C43.8101 41.073 43.5835 40.9792 43.3473 40.9792C40.9604 40.9792 34.2451 40.3914 32.0008 37.7373C31.7514 37.4345 31.2704 36.633 31.4842 36.1877C31.5733 36.0273 32.1967 35.1723 35.8839 35.3148H36.0442C38.5415 36.7457 41.3779 37.4779 44.2558 37.4345C44.492 37.4345 44.7185 37.3407 44.8855 37.1737C45.0526 37.0066 45.1464 36.7801 45.1464 36.5439C45.1464 36.3077 45.0526 36.0812 44.8855 35.9141C44.7185 35.7471 44.492 35.6533 44.2558 35.6533C42.332 35.6533 37.1308 35.1189 36.062 32.643C35.9988 32.4723 35.9788 32.2888 36.0036 32.1085C36.0285 31.9283 36.0975 31.757 36.2045 31.6098C36.5608 31.1823 38.3598 29.9889 46.2864 32.073H47.3551C55.2283 29.9889 57.0629 31.1823 57.4192 31.592C57.5322 31.7396 57.6061 31.9132 57.6341 32.0969C57.6622 32.2806 57.6434 32.4684 57.5795 32.643C56.5286 35.1189 51.3095 35.6533 49.368 35.6533C49.1317 35.6533 48.9052 35.7471 48.7382 35.9141C48.5712 36.0812 48.4773 36.3077 48.4773 36.5439C48.4773 36.7801 48.5712 37.0066 48.7382 37.1737C48.9052 37.3407 49.1317 37.4345 49.368 37.4345C52.2327 37.4822 55.0573 36.756 57.5439 35.3327C60.9995 35.2436 61.6051 36.0452 61.6942 36.2055C61.908 36.6508 61.427 37.4523 61.1776 37.7552C58.9333 40.4092 52.2714 40.997 49.8311 40.997C49.5949 40.997 49.3683 41.0909 49.2013 41.2579C49.0343 41.4249 48.9405 41.6514 48.9405 41.8877C48.9405 42.1239 49.0343 42.3504 49.2013 42.5174C49.3683 42.6844 49.5949 42.7783 49.8311 42.7783C52.699 42.7506 55.5481 42.3127 58.292 41.478C61.2667 41.7273 62.1217 42.5111 62.3533 42.8495C62.4222 42.929 62.4711 43.0239 62.4959 43.1261C62.5207 43.2284 62.5207 43.3351 62.4958 43.4373C61.4448 47.1958 53.0908 46.8217 50.027 46.3586C49.7938 46.3276 49.5577 46.3882 49.3684 46.5278C49.179 46.6673 49.0512 46.8748 49.0117 47.1067C48.9807 47.3399 49.0413 47.576 49.1809 47.7653C49.3204 47.9547 49.5279 48.0826 49.7598 48.122C51.2303 48.3174 52.7118 48.4185 54.1951 48.4248C56.5671 48.4937 58.929 48.088 61.142 47.2314C62.4958 47.4452 63.3686 47.8548 63.5467 48.3536C63.7248 48.8523 63.1192 49.832 62.7451 50.2239C60.5542 52.8245 52.8414 52.1833 50.0448 51.7023C49.8953 51.6761 49.7415 51.6884 49.5981 51.7383C49.4547 51.7882 49.3264 51.8739 49.2255 51.9873C49.1288 52.1014 49.0607 52.2368 49.0266 52.3823C48.9926 52.5279 48.9936 52.6794 49.0295 52.8245C49.8379 55.0278 51.1851 56.9935 52.9483 58.5423C54.5926 60.0736 56.4682 61.3359 58.5058 62.283C58.6716 62.3661 58.8547 62.4088 59.0401 62.4077C59.244 62.4028 59.4445 62.3542 59.628 62.2652C61.0351 61.5883 62.4423 58.0436 62.7986 56.3336C62.8416 56.1004 62.7936 55.8595 62.6643 55.6607C62.5351 55.4619 62.3345 55.3202 62.1039 55.2648C61.9891 55.2389 61.8703 55.2365 61.7545 55.2576C61.6387 55.2788 61.5285 55.3232 61.4303 55.3881C61.3321 55.453 61.2481 55.5371 61.1832 55.6353C61.1184 55.7335 61.0741 55.8438 61.0529 55.9595C60.6844 57.6075 59.9878 59.1644 59.0045 60.5373C57.2346 59.6934 55.6014 58.5886 54.1595 57.2598C53.0475 56.2207 52.0986 55.0197 51.3451 53.6973C54.587 54.0892 61.4983 54.4811 64.0633 51.4352C64.5337 50.9814 64.8866 50.4199 65.0914 49.7992C65.2962 49.1785 65.3469 48.5173 65.2389 47.8727C65.0475 47.3712 64.7365 46.9241 64.3329 46.5702C63.9293 46.2163 63.4454 45.9663 62.9233 45.842Z" fill="#60DCB2"/>
<path d="M48.9761 59.6292H44.4696C44.2348 59.6337 44.0109 59.729 43.8448 59.8951C43.6788 60.0611 43.5835 60.285 43.5789 60.5198C43.5789 60.756 43.6728 60.9825 43.8398 61.1495C44.0068 61.3166 44.2334 61.4104 44.4696 61.4104H48.9761C49.2123 61.4104 49.4389 61.3166 49.6059 61.1495C49.7729 60.9825 49.8668 60.756 49.8668 60.5198C49.8668 60.2836 49.7729 60.057 49.6059 59.89C49.4389 59.723 49.2123 59.6292 48.9761 59.6292Z" fill="#60DCB2"/>
<path d="M48.9761 63.1917H44.4696C44.2348 63.1962 44.0109 63.2915 43.8448 63.4576C43.6788 63.6236 43.5835 63.8475 43.5789 64.0823C43.5789 64.3185 43.6728 64.545 43.8398 64.712C44.0068 64.8791 44.2334 64.9729 44.4696 64.9729H48.9761C49.2123 64.9729 49.4389 64.8791 49.6059 64.712C49.7729 64.545 49.8668 64.3185 49.8668 64.0823C49.8668 63.8461 49.7729 63.6195 49.6059 63.4525C49.4389 63.2855 49.2123 63.1917 48.9761 63.1917Z" fill="#60DCB2"/>
</g>
<defs>
<linearGradient id="paint0_linear_56_882" x1="-6.96296" y1="117.642" x2="94.9311" y2="116.27" gradientUnits="userSpaceOnUse">
<stop offset="0.0885124" stop-color="#7CE5A7"/>
<stop offset="0.516867" stop-color="#F5F5F9"/>
<stop offset="1" stop-color="#7CE5A7"/>
</linearGradient>
<clipPath id="clip0_56_882">
<rect width="40" height="40" fill="white" transform="translate(27 27.1421)"/>
</clipPath>
</defs>
</svg>
